<svg xmlns="http://www.w3.org/2000/svg" width="2048" height="512" fill="none">
    <path fill="#050C26" d="M0 0h2048v512H0z"/>
    <path fill="#fff" d="M227.943 337.789c-12.584 0-23.371-2.396-29.962-7.79-10.786-7.79-14.981-17.977-14.981-33.557V180.191h26.966v35.954h38.95v26.366h-38.95v49.137c0 9.588 1.797 14.382 6.591 17.378 2.996 1.798 8.389 2.996 16.779 2.996 5.393 0 15.58-.599 15.58-.599v24.569s-9.588 1.797-20.973 1.797Zm737.056-24.569c-11.985 17.378-29.362 26.367-52.732 26.367-19.176 0-35.356-5.993-47.339-17.978-11.985-11.983-17.978-26.965-17.978-44.941 0-17.977 5.993-32.959 17.978-44.943 11.983-11.985 26.965-17.977 45.541-17.977 17.377 0 31.759 5.992 43.144 18.576 11.386 11.985 16.779 27.565 16.779 44.943 0 6.592-1.198 11.385-1.198 11.385h-93.481c1.798 8.39 5.992 14.382 12.584 19.175 6.592 4.794 14.981 7.191 24.569 7.191 13.183 0 23.37-4.793 29.962-14.382l22.171 12.584Zm-89.286-47.938h67.115c-1.799-8.989-5.393-15.581-11.386-20.374-5.992-4.794-13.183-7.191-21.572-7.191-8.989 0-16.779 2.397-22.771 7.79-5.394 5.394-9.588 11.985-11.386 19.775ZM651.6 313.22c-11.985 17.378-29.363 26.367-52.732 26.367-19.176 0-35.355-5.993-47.339-17.978-11.985-11.983-17.977-26.965-17.977-44.941 0-17.977 5.992-32.959 17.977-44.943 11.984-11.985 26.965-17.977 45.541-17.977 17.378 0 31.759 5.992 43.145 18.576 11.385 11.985 16.779 27.565 16.779 44.943 0 6.592-1.199 11.385-1.199 11.385h-93.481c1.798 8.39 5.993 14.382 12.584 19.175 6.592 4.794 14.981 7.191 24.569 7.191 13.183 0 23.37-4.793 29.962-14.382L651.6 313.22Zm-89.286-47.938h67.115c-1.798-8.989-5.393-15.581-11.386-20.374-5.992-4.794-13.183-7.191-21.573-7.191-8.988 0-16.778 2.397-22.77 7.79-5.992 5.394-9.588 11.985-11.386 19.775Zm-253.475-76.103A16.112 16.112 0 0 0 292.66 173a16.112 16.112 0 0 0-16.18 16.179c0 8.989 7.191 16.18 16.18 16.18a16.112 16.112 0 0 0 16.179-16.18Zm497.364 147.412 31.159-119.847h-27.564l-19.176 84.492h-1.797l-22.172-84.492h-28.164l-22.771 84.492h-1.798l-19.175-84.492H667.18l31.16 119.847h31.76l21.572-84.492h1.798l21.572 84.492h31.161Zm-293.025-74.306c0-14.98-4.195-26.965-12.584-35.354-8.39-8.989-19.176-13.183-32.958-13.183-14.382 0-28.165 7.79-35.355 20.374h-1.798c-5.992-12.584-18.576-20.374-32.957-20.374-13.783 0-25.767 6.591-32.359 17.378h-1.198v-14.382h-27.566v119.847h27.566v-67.115c0-9.587 2.396-17.377 7.79-22.77 4.794-4.794 10.786-7.79 17.977-7.79 6.591 0 11.984 2.396 15.579 6.591 3.596 4.194 5.394 10.786 5.394 18.577v72.507h27.564v-67.115c0-9.587 2.397-17.377 7.191-22.77 4.195-4.794 10.786-7.191 17.977-7.191 6.592 0 11.985 2.397 16.179 6.592 4.195 4.194 5.992 10.785 5.992 18.576v72.507h27.566v-74.905Zm-206.736 74.306V216.744h-27.564v119.847h27.564Zm796.378-15.581c11.39-11.984 17.38-26.965 17.38-44.942 0-17.377-5.99-32.958-17.38-44.942-11.38-11.985-25.77-17.977-41.34-17.977-15.58 0-31.16 7.19-40.75 17.977h-1.8v-50.935h-27.565v155.801h27.565V321.01h1.8c9.59 11.386 25.76 18.577 41.35 18.577 16.17 0 29.36-6.592 40.74-18.577Zm-20.37-71.309c7.19 7.191 10.19 15.581 10.19 26.367 0 10.786-3.6 19.175-10.19 26.367-7.19 7.191-15.58 10.186-26.37 10.186-10.78 0-19.17-3.595-26.36-10.186-7.19-7.192-10.19-15.581-10.19-26.367 0-10.786 3.59-19.176 10.19-26.367 7.19-7.19 15.58-10.186 26.36-10.186 10.79 0 19.18 3.595 26.37 10.186Z"/>
    <path fill="#454CEE" d="m1237.66 276.068-63.53-62.92-17.98 18.577 44.35 44.343-44.35 44.942 17.98 18.576 63.53-63.518ZM1370.65 297.341c-6.76 10.208-16.8 17.168-30.55 17.168-24.5 0-40.35-16.241-40.35-38.048 0-22.735 15.62-38.279 37.55-38.279 13.76 0 22.86 4.872 31.02 15.776l19.83-12.992c-7.94-16.008-27.06-27.375-52.02-27.375-38.25 0-63.91 27.143-63.91 62.87 0 38.048 26.36 62.639 65.31 62.639 20.99 0 41.98-10.207 52.01-29.696l-18.89-12.063ZM1753.45 320.656c-11.38-11.899-17.37-26.772-17.37-44.62 0-17.253 5.99-32.721 17.37-44.619 11.39-11.899 25.77-17.849 41.35-17.849 15.58 0 31.16 7.14 40.75 17.849h1.8v-50.57h27.57v154.682h-27.57v-14.873h-1.8c-9.59 11.303-25.77 18.443-41.35 18.443-16.18 0-29.36-6.545-40.75-18.443Zm20.38-70.797c-7.19 7.139-10.19 15.468-10.19 26.177 0 10.708 3.6 19.038 10.19 26.177 7.19 7.139 15.58 10.113 26.36 10.113 10.79 0 19.18-3.569 26.37-10.113 7.2-7.139 10.19-15.469 10.19-26.177 0-10.709-3.59-19.038-10.19-26.177-7.19-7.139-15.58-10.114-26.37-10.114-10.78 0-19.17 3.57-26.36 10.114ZM1408.64 336.37h27.56V180.847h-27.56V336.37ZM1716.14 336.243h-27.51v-12.605a40.14 40.14 0 0 1-14.22 10.971 40.225 40.225 0 0 1-17.59 3.681c-33.01 0-50.91-16.726-50.91-53.397v-68.538h27.52v66.001c0 17.435 5.27 31.651 25.93 31.651 13.64 0 22.62-7.34 29.27-20.628v-77.024h27.51v119.888ZM1458.04 276.461c0 36.191 26.14 62.639 62.64 62.639 36.95 0 62.87-26.448 62.87-62.639 0-36.423-25.92-62.87-62.87-62.87-37.18 0-62.64 26.447-62.64 62.87Zm26.58 0c0-23.663 15.56-38.279 36.06-38.279 20.28 0 36.28 14.848 36.28 38.279 0 23.199-14.87 38.048-36.28 38.048-21.41 0-36.06-16.241-36.06-38.048Z"/>
</svg>
